<svg xmlns="http://www.w3.org/2000/svg" width="19" height="16" viewBox="0 0 19 16">
  <defs>
    <style>
      .cls-1 {
        fill: #ff4242;
        fill-rule: evenodd;
      }
    </style>
  </defs>
  <path id="Фигура_8" data-name="Фигура 8" class="cls-1" d="M1295.04,5135h-11.08a3.808,3.808,0,0,0-3.96,3.64v8.72a3.808,3.808,0,0,0,3.96,3.64h11.08a3.808,3.808,0,0,0,3.96-3.64v-8.72A3.808,3.808,0,0,0,1295.04,5135Zm-11.08,1.45h11.08a2.38,2.38,0,0,1,2.2,1.38l-6.06,5.57a2.532,2.532,0,0,1-3.36,0l-6.06-5.57A2.38,2.38,0,0,1,1283.96,5136.45Zm11.08,13.09h-11.08a2.285,2.285,0,0,1-2.38-2.18v-7.63l5.12,4.69a4.213,4.213,0,0,0,5.6,0l5.12-4.69v7.63A2.285,2.285,0,0,1,1295.04,5149.54Z" transform="translate(-1280 -5135)"/>
</svg>
