<svg xmlns="http://www.w3.org/2000/svg" width="19.03" height="19" viewBox="0 0 19.03 19">
  <defs>
    <style>
      .cls-1 {
        fill: #ff4242;
        fill-rule: evenodd;
      }
    </style>
  </defs>
  <path id="Фигура_7" data-name="Фигура 7" class="cls-1" d="M1290.28,5093.79a0.785,0.785,0,0,1,.79-0.79,7.936,7.936,0,0,1,7.93,7.93,0.8,0.8,0,0,1-1.59,0,6.342,6.342,0,0,0-6.34-6.34A0.794,0.794,0,0,1,1290.28,5093.79Zm0.79,3.97a3.171,3.171,0,0,1,3.17,3.17,0.8,0.8,0,0,0,1.59,0,4.759,4.759,0,0,0-4.76-4.76A0.8,0.8,0,0,0,1291.07,5097.76Zm7.21,8.51a2.462,2.462,0,0,1,0,3.48l-0.72.83c-6.5,6.21-22.3-9.59-16.18-16.1l0.91-.79a2.451,2.451,0,0,1,3.44.03c0.02,0.02,1.49,1.93,1.49,1.93a2.468,2.468,0,0,1-.01,3.4l-0.91,1.15a10.091,10.091,0,0,0,5.49,5.51l1.16-.93a2.478,2.478,0,0,1,3.4,0S1298.26,5106.25,1298.28,5106.27Zm-1.09,1.16s-1.9-1.46-1.92-1.49a0.869,0.869,0,0,0-1.23,0c-0.02.02-1.62,1.3-1.62,1.3a0.812,0.812,0,0,1-.78.12,11.911,11.911,0,0,1-6.99-6.99,0.782,0.782,0,0,1,.11-0.79s1.28-1.6,1.3-1.62a0.888,0.888,0,0,0,0-1.23c-0.03-.02-1.49-1.92-1.49-1.92a0.858,0.858,0,0,0-1.19.03l-0.92.79c-4.47,5.38,9.23,18.32,13.94,13.86l0.72-.83a0.889,0.889,0,0,0,.07-1.23h0Z" transform="translate(-1280 -5093)"/>
</svg>
