<svg xmlns="http://www.w3.org/2000/svg" width="17" height="21" viewBox="0 0 17 21">
  <defs>
    <style>
      .cls-1 {
        fill: #ff4242;
        fill-rule: evenodd;
      }
    </style>
  </defs>
  <path id="Фигура_9" data-name="Фигура 9" class="cls-1" d="M1293.14,5194.07a4.4,4.4,0,0,1-7.28,0c-3.23-4.6-4.86-8.05-4.86-10.27a8.505,8.505,0,1,1,17,0C1298,5186.02,1296.37,5189.47,1293.14,5194.07Zm-3.64-17.16a6.787,6.787,0,0,0-6.66,6.89c0,1.76,1.6,5.01,4.51,9.16a2.6,2.6,0,0,0,3.71.61,2.626,2.626,0,0,0,.59-0.61c2.91-4.15,4.51-7.4,4.51-9.16A6.787,6.787,0,0,0,1289.5,5176.91Zm0,10.34a3.5,3.5,0,1,1,3.38-3.5A3.441,3.441,0,0,1,1289.5,5187.25Zm0-5.25a1.751,1.751,0,1,0,1.69,1.75A1.721,1.721,0,0,0,1289.5,5182Z" transform="translate(-1281 -5175)"/>
</svg>
